<?xml version="1.0" encoding="utf-8"?><svg version="1.1" xmlns="http://www.w3.org/2000/svg" xmlns:xlink="http://www.w3.org/1999/xlink" width="500" height="56" font-size="16px" font-family="-apple-system,BlinkMacSystemFont,'Segoe UI','Noto Sans',Helvetica,Arial,sans-serif,'Apple Color Emoji','Segoe UI Emoji'"><text x="0" y="16" fill="#3F5EFB">Y</text><text x="9" y="16" fill="#425DF8">o</text><text x="17.4" y="16" fill="#455DF5">u</text><text x="25.8" y="16" fill="#485CF3"> </text><text x="31.099998" y="16" fill="#4A5CF2">c</text><text x="37.8" y="16" fill="#4D5CF0">a</text><text x="45.1" y="16" fill="#505BEE">n</text><text x="53.5" y="16" fill="#535BEB"> </text><text x="58.8" y="16" fill="#555BEA">a</text><text x="66.1" y="16" fill="#575AE7">l</text><text x="69.1" y="16" fill="#595AE7">s</text><text x="75.799995" y="16" fill="#5B5AE5">o</text><text x="84.2" y="16" fill="#5E59E2"> </text><text x="89.5" y="16" fill="#6059E1">g</text><text x="97.7" y="16" fill="#6359DE">e</text><text x="105.299995" y="16" fill="#6658DC">n</text><text x="113.7" y="16" fill="#6958DA">e</text><text x="121.299995" y="16" fill="#6C58D8">r</text><text x="126.799995" y="16" fill="#6E57D6">a</text><text x="134.09999" y="16" fill="#7157D4">t</text><text x="138.79999" y="16" fill="#7357D3">e</text><text x="146.4" y="16" fill="#7656D0"> </text><text x="151.7" y="16" fill="#7856CF">a</text><text x="159" y="16" fill="#7B56CD"> </text><text x="164.3" y="16" fill="#7D56CB">s</text><text x="171" y="16" fill="#7F55C9">v</text><text x="178.3" y="16" fill="#8255C7">g</text><text x="186.5" y="16" fill="#8555C5"> </text><text x="191.8" y="16" fill="#8754C3">f</text><text x="196.5" y="16" fill="#8954C2">i</text><text x="200.5" y="16" fill="#8A54C1">l</text><text x="203.5" y="16" fill="#8B54C0">e</text><text x="211.1" y="16" fill="#8E53BE"> </text><text x="216.40001" y="16" fill="#9053BC">w</text><text x="227.90001" y="16" fill="#9553B9">i</text><text x="231.90001" y="16" fill="#9652B8">t</text><text x="236.6" y="16" fill="#9852B6">h</text><text x="245.3" y="16" fill="#9B52B4"> </text><text x="250.6" y="16" fill="#9D51B2">a</text><text x="257.9" y="16" fill="#A051B0"> </text><text x="263.19998" y="16" fill="#A251AF">g</text><text x="271.4" y="16" fill="#A550AC">r</text><text x="276.9" y="16" fill="#A750AB">a</text><text x="284.19998" y="16" fill="#AA50A9">d</text><text x="292.3" y="16" fill="#AD4FA6">i</text><text x="296.3" y="16" fill="#AF4FA5">e</text><text x="303.9" y="16" fill="#B14FA3">n</text><text x="312.3" y="16" fill="#B54FA1">t</text><text x="317" y="16" fill="#B64E9F"> </text><text x="322.3" y="16" fill="#B84E9E">t</text><text x="327" y="16" fill="#BA4E9C">e</text><text x="334.6" y="16" fill="#BD4D9A">x</text><text x="341.9" y="16" fill="#C04D98">t</text><text x="346.6" y="16" fill="#C24D97">,</text><text x="350" y="16" fill="#C34D96"> </text><text x="355.3" y="16" fill="#C54C94">b</text><text x="363.9" y="16" fill="#C84C92">u</text><text x="372.3" y="16" fill="#CB4C8F">t</text><text x="377" y="16" fill="#CD4B8E"> </text><text x="382.3" y="16" fill="#CF4B8C">y</text><text x="389.59998" y="16" fill="#D24B8A">o</text><text x="397.99997" y="16" fill="#D54A88">u</text><text x="406.39996" y="16" fill="#D84A85"> </text><text x="411.69995" y="16" fill="#DA4A84">n</text><text x="420.09995" y="16" fill="#DD4982">e</text><text x="427.69995" y="16" fill="#E0497F">e</text><text x="435.29996" y="16" fill="#E3497D">d</text><text x="443.39996" y="16" fill="#E6487B"> </text><text x="448.69995" y="16" fill="#E84879">t</text><text x="453.39996" y="16" fill="#EA4878">o</text><text x="461.79996" y="16" fill="#ED4776"> </text><text x="467.09995" y="16" fill="#EF4774"> </text><text x="472.39993" y="16" fill="#F14772"> </text><text x="477.69992" y="16" fill="#F34771"> </text><text x="482.9999" y="16" fill="#F5466F"> </text><text x="0" y="32" fill="#3F5EFB">s</text><text x="6.7" y="32" fill="#415DF9">p</text><text x="15.4" y="32" fill="#445DF6">e</text><text x="23" y="32" fill="#475CF4">c</text><text x="29.7" y="32" fill="#4A5CF2">i</text><text x="33.7" y="32" fill="#4B5CF1">f</text><text x="38.4" y="32" fill="#4D5CEF">y</text><text x="45.7" y="32" fill="#505BED"> </text><text x="51" y="32" fill="#525BEC">t</text><text x="55.7" y="32" fill="#545BEA">h</text><text x="64.4" y="32" fill="#575AE8">e</text><text x="72" y="32" fill="#5A5AE6"> </text><text x="77.3" y="32" fill="#5C5AE4">s</text><text x="84" y="32" fill="#5E59E2">c</text><text x="90.7" y="32" fill="#6159E0">a</text><text x="98" y="32" fill="#6459DE">l</text><text x="101" y="32" fill="#6559DD">e</text><text x="108.6" y="32" fill="#6858DB"> </text><text x="113.9" y="32" fill="#6A58DA">f</text><text x="118.6" y="32" fill="#6B58D8">a</text><text x="125.9" y="32" fill="#6E57D6">c</text><text x="132.6" y="32" fill="#7157D4">t</text><text x="137.3" y="32" fill="#7257D3">o</text><text x="145.7" y="32" fill="#7657D1">r</text><text x="151.2" y="32" fill="#7856CF">,</text><text x="154.59999" y="32" fill="#7956CE"> </text><text x="159.9" y="32" fill="#7B56CC">t</text><text x="164.59999" y="32" fill="#7D56CB">h</text><text x="173.29999" y="32" fill="#8055C9">e</text><text x="180.9" y="32" fill="#8355C6"> </text><text x="186.2" y="32" fill="#8555C5">t</text><text x="190.9" y="32" fill="#8754C4">e</text><text x="198.5" y="32" fill="#8A54C1">x</text><text x="205.8" y="32" fill="#8C54BF">t</text><text x="210.5" y="32" fill="#8E53BE"> </text><text x="215.8" y="32" fill="#9053BC">a</text><text x="223.1" y="32" fill="#9353BA">n</text><text x="231.5" y="32" fill="#9652B8">d</text><text x="239.6" y="32" fill="#9952B5"> </text><text x="244.90001" y="32" fill="#9B52B4">t</text><text x="249.6" y="32" fill="#9D52B3">h</text><text x="258.30002" y="32" fill="#A051B0">e</text><text x="265.90002" y="32" fill="#A351AE"> </text><text x="271.2" y="32" fill="#A550AC">c</text><text x="277.90002" y="32" fill="#A850AA">o</text><text x="286.30002" y="32" fill="#AB50A8">l</text><text x="289.30002" y="32" fill="#AC50A7">o</text><text x="297.7" y="32" fill="#AF4FA5">r</text><text x="303.2" y="32" fill="#B14FA3">s</text><text x="309.90002" y="32" fill="#B44FA1">.</text><text x="313.30002" y="32" fill="#B54EA0"> </text><text x="318.6" y="32" fill="#B74E9F">(</text><text x="322.6" y="32" fill="#B84E9E">1</text><text x="328.9" y="32" fill="#BB4E9C">.</text><text x="332.3" y="32" fill="#BC4E9B">0</text><text x="339.59998" y="32" fill="#BF4D99"> </text><text x="344.89996" y="32" fill="#C14D97">i</text><text x="348.89996" y="32" fill="#C24D96">s</text><text x="355.59998" y="32" fill="#C54C94"> </text><text x="360.89996" y="32" fill="#C74C93">g</text><text x="369.09998" y="32" fill="#CA4C90">i</text><text x="373.09998" y="32" fill="#CC4C8F">t</text><text x="377.8" y="32" fill="#CD4B8E">h</text><text x="386.5" y="32" fill="#D14B8B">u</text><text x="394.9" y="32" fill="#D44B89">b</text><text x="403.5" y="32" fill="#D74A86"> </text><text x="408.8" y="32" fill="#D94A85">d</text><text x="416.9" y="32" fill="#DC4982">e</text><text x="424.5" y="32" fill="#DF4980">f</text><text x="429.2" y="32" fill="#E1497F">a</text><text x="436.5" y="32" fill="#E3497D">u</text><text x="444.9" y="32" fill="#E7487A">l</text><text x="447.9" y="32" fill="#E8487A">t</text><text x="452.6" y="32" fill="#EA4878"> </text><text x="457.9" y="32" fill="#EC4877">f</text><text x="462.6" y="32" fill="#ED4775">o</text><text x="471" y="32" fill="#F14773">n</text><text x="479.4" y="32" fill="#F44670">t</text><text x="0" y="48" fill="#3F5EFB">s</text><text x="6.7" y="48" fill="#415DF9">i</text><text x="10.7" y="48" fill="#435DF7">z</text><text x="17.4" y="48" fill="#455DF5">e</text><text x="25" y="48" fill="#485CF3">)</text></svg>