<?xml version="1.0" encoding="utf-8"?><svg version="1.1" xmlns="http://www.w3.org/2000/svg" xmlns:xlink="http://www.w3.org/1999/xlink" width="500" height="40" font-size="16px" font-family="-apple-system,BlinkMacSystemFont,'Segoe UI','Noto Sans',Helvetica,Arial,sans-serif,'Apple Color Emoji','Segoe UI Emoji'"><text x="0" y="16" fill="#3F5EFB">Y</text><text x="9" y="16" fill="#425DF8">o</text><text x="17.4" y="16" fill="#455DF5">u</text><text x="25.8" y="16" fill="#485CF3"> </text><text x="31.099998" y="16" fill="#4A5CF2">c</text><text x="37.8" y="16" fill="#4D5CF0">a</text><text x="45.1" y="16" fill="#505BEE">n</text><text x="53.5" y="16" fill="#535BEB"> </text><text x="58.8" y="16" fill="#555BEA">a</text><text x="66.1" y="16" fill="#575AE7">l</text><text x="69.1" y="16" fill="#595AE7">s</text><text x="75.799995" y="16" fill="#5B5AE5">o</text><text x="84.2" y="16" fill="#5E59E2"> </text><text x="89.5" y="16" fill="#6059E1">g</text><text x="97.7" y="16" fill="#6359DE">e</text><text x="105.299995" y="16" fill="#6658DC">n</text><text x="113.7" y="16" fill="#6958DA">e</text><text x="121.299995" y="16" fill="#6C58D8">r</text><text x="126.799995" y="16" fill="#6E57D6">a</text><text x="134.09999" y="16" fill="#7157D4">t</text><text x="138.79999" y="16" fill="#7357D3">e</text><text x="146.4" y="16" fill="#7656D0"> </text><text x="151.7" y="16" fill="#7856CF">a</text><text x="159" y="16" fill="#7B56CD"> </text><text x="164.3" y="16" fill="#7D56CB">s</text><text x="171" y="16" fill="#7F55C9">v</text><text x="178.3" y="16" fill="#8255C7">g</text><text x="186.5" y="16" fill="#8555C5"> </text><text x="191.8" y="16" fill="#8754C3">f</text><text x="196.5" y="16" fill="#8954C2">i</text><text x="200.5" y="16" fill="#8A54C1">l</text><text x="203.5" y="16" fill="#8B54C0">e</text><text x="211.1" y="16" fill="#8E53BE"> </text><text x="216.40001" y="16" fill="#9053BC">w</text><text x="227.90001" y="16" fill="#9553B9">i</text><text x="231.90001" y="16" fill="#9652B8">t</text><text x="236.6" y="16" fill="#9852B6">h</text><text x="245.3" y="16" fill="#9B52B4"> </text><text x="250.6" y="16" fill="#9D51B2">a</text><text x="257.9" y="16" fill="#A051B0"> </text><text x="263.19998" y="16" fill="#A251AF">g</text><text x="271.4" y="16" fill="#A550AC">r</text><text x="276.9" y="16" fill="#A750AB">a</text><text x="284.19998" y="16" fill="#AA50A9">d</text><text x="292.3" y="16" fill="#AD4FA6">i</text><text x="296.3" y="16" fill="#AF4FA5">e</text><text x="303.9" y="16" fill="#B14FA3">n</text><text x="312.3" y="16" fill="#B54FA1">t</text><text x="317" y="16" fill="#B64E9F"> </text><text x="322.3" y="16" fill="#B84E9E">t</text><text x="327" y="16" fill="#BA4E9C">e</text><text x="334.6" y="16" fill="#BD4D9A">x</text><text x="341.9" y="16" fill="#C04D98">t</text><text x="346.6" y="16" fill="#C24D97">,</text><text x="350" y="16" fill="#C34D96"> </text><text x="355.3" y="16" fill="#C54C94">b</text><text x="363.9" y="16" fill="#C84C92">u</text><text x="372.3" y="16" fill="#CB4C8F">t</text><text x="377" y="16" fill="#CD4B8E"> </text><text x="382.3" y="16" fill="#CF4B8C">y</text><text x="389.59998" y="16" fill="#D24B8A">o</text><text x="397.99997" y="16" fill="#D54A88">u</text><text x="406.39996" y="16" fill="#D84A85"> </text><text x="411.69995" y="16" fill="#DA4A84">n</text><text x="420.09995" y="16" fill="#DD4982">e</text><text x="427.69995" y="16" fill="#E0497F">e</text><text x="435.29996" y="16" fill="#E3497D">d</text><text x="443.39996" y="16" fill="#E6487B"> </text><text x="448.69995" y="16" fill="#E84879">t</text><text x="453.39996" y="16" fill="#EA4878">o</text><text x="461.79996" y="16" fill="#ED4776"> </text><text x="467.09995" y="16" fill="#EF4774">s</text><text x="473.79996" y="16" fill="#F24772">p</text><text x="482.49997" y="16" fill="#F54670">e</text><text x="0" y="32" fill="#3F5EFB">c</text><text x="6.7" y="32" fill="#415DF9">i</text><text x="10.7" y="32" fill="#435DF7">f</text><text x="15.4" y="32" fill="#445DF6">y</text><text x="22.7" y="32" fill="#475CF4"> </text><text x="28" y="32" fill="#495CF2">t</text><text x="32.7" y="32" fill="#4B5CF1">h</text><text x="41.4" y="32" fill="#4E5CEF">e</text><text x="49" y="32" fill="#515BEC"> </text><text x="54.3" y="32" fill="#535BEB">s</text><text x="61" y="32" fill="#565BE9">c</text><text x="67.7" y="32" fill="#585AE7">a</text><text x="75" y="32" fill="#5B5AE5">l</text><text x="78" y="32" fill="#5C5AE4">e</text><text x="85.6" y="32" fill="#5F59E2"> </text><text x="90.9" y="32" fill="#6159E0">f</text><text x="95.6" y="32" fill="#6359DF">a</text><text x="102.9" y="32" fill="#6559DD">c</text><text x="109.6" y="32" fill="#6858DB">t</text><text x="114.299995" y="32" fill="#6A58DA">o</text><text x="122.7" y="32" fill="#6D58D7">r</text><text x="128.2" y="32" fill="#6F57D6">,</text><text x="131.59999" y="32" fill="#7057D5"> </text><text x="136.9" y="32" fill="#7257D3">t</text><text x="141.59999" y="32" fill="#7457D2">h</text><text x="150.29999" y="32" fill="#7756CF">e</text><text x="157.9" y="32" fill="#7A56CD"> </text><text x="163.2" y="32" fill="#7C56CB">t</text><text x="167.9" y="32" fill="#7E55CA">e</text><text x="175.5" y="32" fill="#8155C8">x</text><text x="182.8" y="32" fill="#8455C6">t</text><text x="187.5" y="32" fill="#8555C5"> </text><text x="192.8" y="32" fill="#8754C3">a</text><text x="200.1" y="32" fill="#8A54C1">n</text><text x="208.5" y="32" fill="#8D53BE">d</text><text x="216.6" y="32" fill="#9053BC"> </text><text x="221.90001" y="32" fill="#9253BB">t</text><text x="226.6" y="32" fill="#9453B9">h</text><text x="235.3" y="32" fill="#9752B7">e</text><text x="242.90001" y="32" fill="#9A52B5"> </text><text x="248.20001" y="32" fill="#9C52B3">c</text><text x="254.90001" y="32" fill="#9F51B1">o</text><text x="263.30002" y="32" fill="#A251AF">l</text><text x="266.30002" y="32" fill="#A351AE">o</text><text x="274.7" y="32" fill="#A650AB">r</text><text x="280.2" y="32" fill="#A850AA">s</text><text x="286.90002" y="32" fill="#AB50A8">.</text></svg>